# xmcd
#
# Track frame offsets:
#	150
#	21425
#	36920
#	63932
#	81171
#	106974
#	128961
#	153180
#	173995
#	194097
#	212507
#	229545
#	250735
#	271700
#	291381
#	309764
#
# Disc length: 4435 seconds
#
# Revision: 6
# Processed by: cddbd v1.5.2PL0 Copyright (c) Steve Scherf et al.
# Submitted via: audiograbber 1.83.01
#
DISCID=d9115110
DTITLE=Blues Company - ...Blues, Ballads and Assorted Love Songs
DYEAR=1997
DGENRE=Blues
TTITLE0=Red Blood
TTITLE1=Blues Is My Middle Name
TTITLE2=Silent Nite
TTITLE3=Hey Little Girl
TTITLE4=Cold Rain
TTITLE5=I Don't Know
TTITLE6=Crippled Mind
TTITLE7=Rattlesnake Blues
TTITLE8=I Just Can't Keep From Crying
TTITLE9=Uh Wee Baby
TTITLE10=Walk On
TTITLE11=She's Gone
TTITLE12=Fool
TTITLE13=Tell Me Why
TTITLE14=Blues and Lonesome
TTITLE15=The Blues Is Allright
EXTD=YEAR: 1997
EXTT0=
EXTT1=
EXTT2=
EXTT3=
EXTT4=
EXTT5=
EXTT6=
EXTT7=
EXTT8=
EXTT9=
EXTT10=
EXTT11=
EXTT12=
EXTT13=
EXTT14=
EXTT15=
PLAYORDER=
